<?xml version="1.0" encoding="iso-8859-1"?>
<!-- Generator: Adobe Illustrator 19.0.0, SVG Export Plug-In . SVG Version: 6.00 Build 0)  -->
<svg version="1.1" id="Capa_1" xmlns="http://www.w3.org/2000/svg" xmlns:xlink="http://www.w3.org/1999/xlink" x="0px" y="0px"
	 viewBox="0 0 512 512" style="fill:white; enable-background:new 0 0 512 512;" xml:space="preserve">
<g>
	<g>
		<path d="M227.133,0c-5.523,0-10,4.477-10,10v61.667c0,5.522,4.477,10,10,10s10-4.477,10-10V10C237.133,4.477,232.656,0,227.133,0z
			"/>
	</g>
</g>
<g>
	<g>
		<path d="M358.372,131.266h-61.667c-5.523,0-10,4.477-10,10s4.477,10,10,10h61.667c5.523,0,10-4.477,10-10
			S363.895,131.266,358.372,131.266z"/>
	</g>
</g>
<g>
	<g>
		<path d="M157.533,131.239H95.867c-5.523,0-10,4.477-10,10c0,5.523,4.477,10,10,10h61.667c5.522,0,9.999-4.477,9.999-10
			C167.533,135.716,163.056,131.239,157.533,131.239z"/>
	</g>
</g>
<g>
	<g>
		<path d="M177.662,77.633l-29.115-29.115c-3.905-3.905-10.237-3.905-14.143,0c-3.905,3.905-3.905,10.237,0,14.143l29.116,29.115
			c1.953,1.953,4.512,2.929,7.071,2.929s5.119-0.976,7.071-2.929C181.567,87.871,181.567,81.539,177.662,77.633z"/>
	</g>
</g>
<g>
	<g>
		<path d="M319.853,48.537c-3.905-3.905-10.237-3.905-14.143,0l-29.115,29.115c-3.905,3.905-3.905,10.237,0,14.143
			c1.953,1.953,4.513,2.929,7.072,2.929c2.559,0,5.119-0.976,7.071-2.929l29.115-29.115
			C323.758,58.775,323.758,52.443,319.853,48.537z"/>
	</g>
</g>
<g>
	<g>
		<path d="M389.133,227.706c-6.751,0-13.079,1.826-18.534,4.997c-4.546-15.288-18.721-26.473-35.466-26.473
			c-10.643,0-20.243,4.523-27,11.74c-6.756-7.217-16.358-11.74-27-11.74c-6.127,0-11.905,1.506-17,4.153v-69.131
			c0-20.402-16.598-37-37-37c-20.402,0-37,16.598-37,37v52.727c0,5.523,4.477,10,10,10s10-4.477,10-10v-52.727
			c0-9.374,7.626-17,17-17c9.374,0,17,7.626,17,17V308.66c0,5.523,4.477,10,10,10s10-4.477,10-10v-65.43c0-9.374,7.626-17,17-17
			c9.374,0,17,7.626,17,17v9.651v55.779c0,5.523,4.477,10,10,10s10-4.477,10-10v-55.779v-9.651c0-9.374,7.626-17,17-17
			c9.374,0,17,7.626,17,17v21.475V282v26.661c0,5.523,4.477,10,10,10s10-4.477,10-10V282v-17.295c0-9.374,7.626-17,17-17
			c9.374,0,17,7.626,17,17v104.574c0,7.449-0.671,14.907-1.996,22.167c-0.991,5.434,2.61,10.641,8.043,11.632
			c0.607,0.11,1.21,0.164,1.806,0.164c4.738,0,8.946-3.381,9.827-8.208c1.539-8.441,2.32-17.106,2.32-25.756V264.705
			C426.133,244.304,409.535,227.706,389.133,227.706z"/>
	</g>
</g>
<g>
	<g>
		<path d="M381.24,459.523c-3.767-4.038-10.096-4.257-14.133-0.49C344.319,480.292,314.595,492,283.411,492
			c-46.785,0-90.162-27.222-110.508-69.352L126.84,327.27c-4.155-8.602-0.928-19.082,7.345-23.859
			c8.554-4.937,19.691-2.094,24.831,6.338l32.579,53.455c2.333,3.827,6.927,5.635,11.242,4.424s7.297-5.146,7.297-9.628v-98
			c0-5.523-4.477-10-10-10c-5.523,0-10,4.477-10,10v62.377l-14.04-23.036c-10.926-17.928-33.728-23.748-51.909-13.25
			c-17.295,9.985-24.04,31.894-15.354,49.877l46.063,95.378c11.686,24.197,29.893,44.537,52.653,58.82
			C230.307,504.45,256.541,512,283.412,512c36.266,0,70.834-13.617,97.338-38.343C384.788,469.889,385.008,463.562,381.24,459.523z"
			/>
	</g>
</g>
<g>
	<g>
		<path d="M407.112,425.6c-1.86-1.86-4.44-2.93-7.07-2.93s-5.21,1.07-7.07,2.93c-1.86,1.86-2.93,4.44-2.93,7.07
			c0,2.64,1.07,5.21,2.93,7.07c1.86,1.86,4.44,2.93,7.07,2.93s5.21-1.07,7.07-2.93c1.86-1.86,2.93-4.43,2.93-7.07
			C410.042,430.04,408.972,427.46,407.112,425.6z"/>
	</g>
</g>
<g>
	<g>
		<path d="M207.202,220.93c-1.86-1.86-4.44-2.93-7.07-2.93s-5.21,1.07-7.07,2.93s-2.93,4.44-2.93,7.07s1.07,5.21,2.93,7.07
			s4.44,2.93,7.07,2.93s5.21-1.07,7.07-2.93s2.93-4.44,2.93-7.07S209.062,222.79,207.202,220.93z"/>
	</g>
</g>
<g>
</g>
<g>
</g>
<g>
</g>
<g>
</g>
<g>
</g>
<g>
</g>
<g>
</g>
<g>
</g>
<g>
</g>
<g>
</g>
<g>
</g>
<g>
</g>
<g>
</g>
<g>
</g>
<g>
</g>
</svg>
