<?xml version="1.0" encoding="UTF-8" standalone="no"?>
<!DOCTYPE svg PUBLIC "-//W3C//DTD SVG 1.1//EN" "http://www.w3.org/Graphics/SVG/1.1/DTD/svg11.dtd">
<svg width="100%" height="100%" viewBox="0 0 500 500" version="1.1" xmlns="http://www.w3.org/2000/svg" xmlns:xlink="http://www.w3.org/1999/xlink" xml:space="preserve" xmlns:serif="http://www.serif.com/" style="fill-rule:evenodd;clip-rule:evenodd;stroke-linejoin:round;stroke-miterlimit:1.41421;">
    <g transform="matrix(3.11799,0,0,3.11799,137.404,-1282.62)">
        <clipPath id="_clip1">
            <rect x="-44.302" y="411.432" width="160.325" height="160.265"/>
        </clipPath>
        <g clip-path="url(#_clip1)">
            <path d="M111.675,1.086C340.725,1.086 526.684,187.046 526.684,416.095C526.684,645.145 340.725,831.104 111.675,831.104C-117.374,831.104 -303.333,645.145 -303.333,416.095C-303.333,187.046 -117.374,1.086 111.675,1.086ZM111.675,259.684C198.001,259.684 268.086,329.769 268.086,416.095C268.086,502.421 198.001,572.506 111.675,572.506C25.35,572.506 -44.736,502.421 -44.736,416.095C-44.736,329.769 25.35,259.684 111.675,259.684Z" style="fill:#72da7b;fill-opacity:0.50;"/>
        </g>
    </g>
</svg>
